<svg width="24" height="24" viewBox="0 0 24 24" fill="none" xmlns="http://www.w3.org/2000/svg">
<rect width="24" height="24" rx="4" fill="#222B44"/>
<path d="M18.2788 7.18484H15.2V5.99696C15.2 5.48787 14.7879 5.07574 14.2788 5.07574H9.64849C9.1394 5.07574 8.72728 5.48787 8.72728 5.99696V7.18484H5.72122C4.89698 7.18484 4.24243 7.86362 4.24243 8.66362V9.51211L11.1273 12.7121C11.1758 12.2515 11.5394 11.8879 12 11.8879C12.4606 11.8879 12.8485 12.2515 12.8727 12.7121L19.7576 9.51211V8.66362C19.7576 7.86362 19.103 7.18484 18.2788 7.18484ZM14.7152 7.18484H9.21213V5.99696C9.21213 5.75453 9.40607 5.56059 9.64849 5.56059H14.2788C14.5212 5.56059 14.7152 5.75453 14.7152 5.99696V7.18484Z" fill="#4785FF"/>
<path d="M12.4121 13.8273V12.7849C12.4121 12.5667 12.2424 12.3727 12 12.3727C11.7576 12.3727 11.5879 12.5424 11.5879 12.7849V13.8273C11.5879 14.0455 11.7576 14.2394 12 14.2394C12.2424 14.2394 12.4121 14.0455 12.4121 13.8273Z" fill="#4785FF"/>
<path d="M12.897 13.8273C12.897 14.3121 12.5091 14.7243 12 14.7243C11.4909 14.7243 11.103 14.3364 11.103 13.8273V13.2455L4.24243 10.0455V16.4455C4.24243 17.2697 4.89698 17.9243 5.72122 17.9243H18.2788C19.103 17.9243 19.7576 17.2697 19.7576 16.4455V10.0455L12.897 13.2455V13.8273Z" fill="#4785FF"/>
</svg>
